<?xml version="1.0" encoding="utf-8"?><svg viewBox="0 0 17 16" xmlns="http://www.w3.org/2000/svg" xmlns:xlink="http://www.w3.org/1999/xlink"><style>:root>svg{display:none}:root>svg:target{display:block}</style><svg fill="none" viewBox="0 0 17 16" id="in" xmlns="http://www.w3.org/2000/svg"><g clip-path="url(#aclip0_9_0)"><path d="M3.86 15.999V5.204H.215v10.795H3.86zM2.038 3.729C3.308 3.73 4.1 2.9 4.1 1.864 4.076.805 3.309 0 2.062 0 .815-.001 0 .805 0 1.864 0 2.9.79 3.73 2.014 3.73h.024zM5.878 16h3.644V9.97c0-.322.023-.644.12-.875.263-.645.863-1.312 1.87-1.312 1.319 0 1.846.99 1.846 2.44V16h3.645v-6.19c0-3.316-1.799-4.859-4.197-4.859-1.966 0-2.829 1.082-3.308 1.82h.024V5.203H5.877c.048 1.013 0 10.795 0 10.795z" fill="#000"/></g><defs><clipPath id="aclip0_9_0"><path fill="#fff" d="M0 0h17v16H0z"/></clipPath></defs></svg></svg>